# xmcd CD database file
#
# Track frame offsets:
#	150
#	19988
#	45108
#	75851
#	91382
#	122468
#	139331
#	162886
#	181856
#	210211
#
# Disc length: 3084 seconds
#
# Revision: 0
# Processed by: cddbd v1.5.2PL0 Copyright (c) Steve Scherf et al.
# Submitted via: CDex 1.51
#
DISCID=6a0c0a0a
DTITLE=Ana Maria Soares Pereira/Morcir de Camargo/Liliam H Carvalho/Érika de Andrade Silva - Amor pela terra.
DYEAR=2006
DGENRE=New Age
TTITLE0=Semear
TTITLE1=Amor pela terra
TTITLE2=Solo
TTITLE3=A verdades é um farol
TTITLE4=Deixe seu exemplo
TTITLE5=Clarear
TTITLE6=Repartir
TTITLE7=A amiga das flores
TTITLE8=Reciclar
TTITLE9=Ordem e progresso
EXTD=YEAR: 2006
EXTT0=
EXTT1=
EXTT2=
EXTT3=
EXTT4=
EXTT5=
EXTT6=
EXTT7=
EXTT8=
EXTT9=
PLAYORDER=
